<?xml version="1.0" standalone="no"?>
<!DOCTYPE svg PUBLIC "-//W3C//DTD SVG 20010904//EN"
 "http://www.w3.org/TR/2001/REC-SVG-20010904/DTD/svg10.dtd">
<svg version="1.0" xmlns="http://www.w3.org/2000/svg"
 width="512.000000pt" height="512.000000pt" viewBox="0 0 512.000000 512.000000"
 preserveAspectRatio="xMidYMid meet">
<metadata>
Created by potrace 1.11, written by Peter Selinger 2001-2013
</metadata>
<g transform="translate(0.000000,512.000000) scale(0.100000,-0.100000)"
fill="#000000" stroke="none">
<path d="M2234 4265 c-104 -37 -213 -115 -342 -242 -33 -33 -65 -55 -84 -58
-17 -3 -34 -8 -38 -10 -4 -2 -20 -6 -36 -9 -16 -3 -78 -16 -139 -30 -60 -13
-132 -27 -160 -31 -27 -4 -59 -9 -70 -11 -19 -4 -44 -7 -135 -19 -130 -17
-363 -23 -511 -12 -110 8 -176 24 -194 49 -12 18 -10 26 16 68 38 61 38 86 0
93 -58 12 -140 -19 -210 -80 -71 -61 -94 -123 -93 -255 1 -154 78 -226 287
-269 67 -14 343 -20 425 -9 141 19 289 52 470 105 62 19 116 33 118 31 2 -2
-12 -28 -31 -57 -73 -115 -140 -243 -409 -779 -152 -305 -295 -586 -316 -625
-21 -38 -56 -101 -76 -140 -73 -134 -209 -370 -224 -388 -25 -28 -46 1 -43 58
1 28 -2 45 -9 45 -53 0 -279 -348 -315 -485 -5 -16 -10 -37 -12 -45 -12 -43
-14 -136 -3 -177 32 -130 159 -187 283 -128 109 51 238 217 389 500 56 105
214 422 273 550 15 33 49 105 75 160 26 55 63 134 83 175 59 128 204 420 265
535 32 61 96 182 142 270 92 176 254 477 290 540 13 22 29 52 37 66 19 38 31
45 93 58 71 15 186 48 227 66 l32 14 0 -62 c0 -106 31 -173 108 -232 122 -93
324 -92 503 3 54 29 128 79 150 102 3 3 18 16 34 30 28 24 28 22 -14 -55 -145
-270 -243 -457 -377 -721 l-117 -232 -151 3 c-166 4 -273 12 -322 25 -45 12
-66 -6 -65 -56 1 -60 29 -180 55 -238 35 -77 71 -95 194 -102 54 -3 99 -7 100
-8 2 -1 -27 -61 -63 -132 -402 -785 -470 -934 -481 -1063 -5 -51 -3 -60 17
-79 19 -18 34 -20 106 -19 63 1 87 -3 101 -15 24 -20 51 -15 71 14 9 13 17 25
18 28 0 3 30 66 66 140 37 74 113 239 171 365 57 127 118 259 135 295 33 71
130 282 182 398 l33 72 306 0 c168 0 395 3 504 6 108 2 197 2 197 0 0 -7 -35
-84 -95 -211 -31 -66 -70 -147 -85 -180 -365 -790 -401 -884 -356 -934 22 -25
56 -30 114 -20 58 11 150 22 180 22 18 -1 28 12 53 66 17 36 50 107 74 156 23
50 68 146 100 215 32 69 80 172 106 228 27 57 49 105 49 107 0 2 25 57 56 122
31 65 78 166 104 224 27 58 71 153 98 210 27 57 72 151 100 209 124 262 173
361 457 937 167 337 309 628 316 647 10 27 10 41 1 60 -21 47 -50 57 -182 59
l-122 2 -32 -36 c-32 -38 -93 -156 -353 -689 -403 -823 -384 -786 -407 -787
-11 0 -111 -4 -221 -7 -292 -11 -755 -15 -755 -8 0 3 163 331 361 727 199 397
362 732 362 746 0 41 -67 136 -106 148 -58 19 -132 0 -182 -46 -11 -10 -74
-61 -139 -112 -200 -156 -321 -231 -425 -266 -138 -45 -340 25 -275 96 10 11
19 27 20 37 2 9 7 33 12 52 15 63 -27 184 -77 219 -67 47 -165 53 -267 16z"/>
</g>
</svg>
